<svg width="426.125px" height="117.2px" xmlns="http://www.w3.org/2000/svg" viewBox="36.9375 16.4 426.125 117.2" style="background: rgb(255, 251, 249);" preserveAspectRatio="xMidYMid"><defs><filter id="editing-hover" x="-100%" y="-100%" width="300%" height="300%"><feFlood flood-color="#4c4239" result="flood"></feFlood><feComposite operator="in" in2="SourceAlpha" in="flood" result="shadow"></feComposite><feOffset dx="-4" dy="-4" in="SourceGraphic" result="offset-1"></feOffset><feOffset dx="4" dy="4" in="shadow" result="offset-2"></feOffset><feMerge><feMergeNode in="offset-2"></feMergeNode><feMergeNode in="offset-1"></feMergeNode></feMerge></filter></defs><g filter="url(#editing-hover)"><g transform="translate(78.31998872756958, 104.44000053405762)"><path d="M-6.98 8.83L-6.98 8.83L-6.98 8.83Q-3.71 8.45-1.66 4.22L-1.66 4.22L-1.66 4.22Q0.45-0.06 2.37-9.92L2.37-9.92L8.58-42.24L22.46-42.24L16.26-9.92L16.26-9.92Q13.89 2.62 9.98 7.55L9.98 7.55L9.98 7.55Q7.94 10.11 5.34 11.14L5.34 11.14L5.34 11.14Q2.75 12.16-0.06 12.16L-0.06 12.16L-0.06 12.16Q-2.88 12.16-4.70 11.14L-4.70 11.14L-4.70 11.14Q-6.53 10.11-6.98 8.83ZM37.82 1.28L37.82 1.28L37.82 1.28Q23.74 1.28 23.74-11.97L23.74-11.97L23.74-11.97Q23.74-21.38 28.93-27.46L28.93-27.46L28.93-27.46Q34.43-33.92 43.97-33.92L43.97-33.92L43.97-33.92Q50.88-33.92 54.40-30.72L54.40-30.72L54.40-30.72Q57.92-27.52 57.92-20.80L57.92-20.80L57.92-20.80Q57.92-10.56 52.42-4.61L52.42-4.61L52.42-4.61Q47.04 1.28 37.82 1.28ZM39.49-26.56L39.49-26.56L39.49-26.56Q38.72-24.83 38.11-22.24L38.11-22.24L38.11-22.24Q37.50-19.65 36.74-15.55L36.74-15.55L36.74-15.55Q35.97-11.46 35.97-6.40L35.97-6.40L35.97-6.40Q35.97-4.74 36.51-3.65L36.51-3.65L36.51-3.65Q37.06-2.56 38.53-2.56L38.53-2.56L38.53-2.56Q40-2.56 40.93-3.26L40.93-3.26L40.93-3.26Q41.86-3.97 42.56-5.63L42.56-5.63L42.56-5.63Q43.84-8.58 44.86-14.05L44.86-14.05L44.86-14.05Q45.89-19.52 45.98-21.89L45.98-21.89L45.98-21.89Q46.08-24.26 46.08-26.02L46.08-26.02L46.08-26.02Q46.08-27.78 45.57-28.93L45.57-28.93L45.57-28.93Q45.06-30.08 43.62-30.08L43.62-30.08L43.62-30.08Q42.18-30.08 41.22-29.18L41.22-29.18L41.22-29.18Q40.26-28.29 39.49-26.56ZM82.24-2.69L82.24-2.69L82.24-2.69Q79.17 1.28 71.55 1.28L71.55 1.28L71.55 1.28Q67.58 1.28 64.70-1.12L64.70-1.12L64.70-1.12Q61.82-3.52 61.82-6.98L61.82-6.98L61.82-6.98Q61.82-8.90 62.02-9.86L62.02-9.86L66.30-32.64L79.30-33.92L74.62-9.22L74.62-9.22Q74.37-7.81 74.37-6.98L74.37-6.98L74.37-6.98Q74.37-3.26 76.61-3.26L76.61-3.26L76.61-3.26Q79.10-3.26 80.90-6.66L80.90-6.66L80.90-6.66Q81.47-7.74 81.73-9.15L81.73-9.15L86.27-32.64L98.88-33.92L94.14-8.96L94.14-8.96Q93.95-8 93.95-6.98L93.95-6.98L93.95-6.98Q93.95-5.95 94.53-4.83L94.53-4.83L94.53-4.83Q95.10-3.71 96.96-3.46L96.96-3.46L96.96-3.46Q96.58-1.92 95.23-0.90L95.23-0.90L95.23-0.90Q92.42 1.28 89.38 1.28L89.38 1.28L89.38 1.28Q86.34 1.28 84.54 0.19L84.54 0.19L84.54 0.19Q82.75-0.90 82.24-2.69ZM122.37-17.98L122.37-17.98L122.37-17.98Q124.67-22.08 124.67-26.24L124.67-26.24L124.67-26.24Q124.67-28.99 122.69-28.99L122.69-28.99L122.69-28.99Q121.15-28.99 119.55-26.37L119.55-26.37L119.55-26.37Q117.89-23.74 117.38-20.35L117.38-20.35L114.05 0L100.80 1.28L107.33-32.64L117.89-33.92L116.74-27.46L116.74-27.46Q119.87-33.92 126.91-33.92L126.91-33.92L126.91-33.92Q130.62-33.92 132.64-32L132.64-32L132.64-32Q134.66-30.08 134.66-26.14L134.66-26.14L134.66-26.14Q134.66-22.21 132.06-19.71L132.06-19.71L132.06-19.71Q129.47-17.22 125.06-17.22L125.06-17.22L125.06-17.22Q123.14-17.22 122.37-17.98ZM162.75 1.28L162.75 1.28L162.75 1.28Q155.01 1.28 155.01-4.74L155.01-4.74L155.01-4.74Q155.07-6.40 155.58-9.22L155.58-9.22L156.74-15.10L156.74-15.10Q158.46-23.42 158.46-25.28L158.46-25.28L158.46-25.28Q158.46-28.99 156.29-28.99L156.29-28.99L156.29-28.99Q152.64-28.99 150.72-19.46L150.72-19.46L146.94 0L134.08 1.28L140.74-32.70L151.23-33.92L150.21-27.65L150.21-27.65Q153.22-33.92 162.43-33.92L162.43-33.92L162.43-33.92Q166.91-33.92 168.80-32.03L168.80-32.03L168.80-32.03Q170.69-30.14 170.69-25.92L170.69-25.92L170.69-25.92Q170.69-21.95 168.64-12.67L168.64-12.67L168.64-12.67Q167.68-8.51 167.68-6.94L167.68-6.94L167.68-6.94Q167.68-5.38 168.54-4.48L168.54-4.48L168.54-4.48Q169.41-3.58 170.69-3.46L170.69-3.46L170.69-3.46Q170.05-1.28 167.84 0L167.84 0L167.84 0Q165.63 1.28 162.75 1.28ZM178.59-1.92L178.59-1.92L178.59-1.92Q177.09-3.58 176.42-6.21L176.42-6.21L176.42-6.21Q175.74-8.83 175.74-13.12L175.74-13.12L175.74-13.12Q175.74-17.41 177.22-21.31L177.22-21.31L177.22-21.31Q178.69-25.22 181.38-28.03L181.38-28.03L181.38-28.03Q186.88-33.92 195.97-33.92L195.97-33.92L195.97-33.92Q199.23-33.92 201.60-32.83L201.60-32.83L212.54-33.92L207.81-8.96L207.81-8.96Q207.62-8.19 207.62-6.78L207.62-6.78L207.62-6.78Q207.62-5.38 208.48-4.48L208.48-4.48L208.48-4.48Q209.34-3.58 210.62-3.46L210.62-3.46L210.62-3.46Q209.98-1.28 207.65 0L207.65 0L207.65 0Q205.31 1.28 202.69 1.28L202.69 1.28L202.69 1.28Q200.06 1.28 198.30 0.29L198.30 0.29L198.30 0.29Q196.54-0.70 196.03-2.37L196.03-2.37L196.03-2.37Q195.01-0.77 192.83 0.26L192.83 0.26L192.83 0.26Q190.66 1.28 187.74 1.28L187.74 1.28L187.74 1.28Q184.83 1.28 182.46 0.51L182.46 0.51L182.46 0.51Q180.10-0.26 178.59-1.92ZM192.10-27.90L192.10-27.90L192.10-27.90Q191.36-26.75 190.72-24.80L190.72-24.80L190.72-24.80Q190.08-22.85 189.02-17.63L189.02-17.63L189.02-17.63Q187.97-12.42 187.97-8.70L187.97-8.70L187.97-8.70Q187.97-4.99 188.54-3.90L188.54-3.90L188.54-3.90Q189.12-2.82 190.14-2.82L190.14-2.82L190.14-2.82Q192.19-2.82 193.70-4.77L193.70-4.77L193.70-4.77Q195.20-6.72 195.78-10.18L195.78-10.18L199.17-28.93L199.17-28.93Q197.82-30.08 196.26-30.08L196.26-30.08L196.26-30.08Q194.69-30.08 193.76-29.57L193.76-29.57L193.76-29.57Q192.83-29.06 192.10-27.90ZM231.30-3.52L231.30-3.52L231.30-3.52Q229.31 1.28 222.98 1.28L222.98 1.28L222.98 1.28Q219.78 1.28 217.73-0.96L217.73-0.96L217.73-0.96Q216.06-2.82 216.06-4.93L216.06-4.93L216.06-4.93Q216.06-9.73 218.30-20.22L218.30-20.22L222.98-44.80L235.97-46.08L229.76-13.70L229.76-13.70Q228.67-8.96 228.67-7.30L228.67-7.30L228.67-7.30Q228.67-3.65 231.30-3.52ZM264.83 1.28L264.83 1.28L264.83 1.28Q256.64 1.28 255.87-10.37L255.87-10.37L244.86-10.37L244.86-10.37Q243.58-7.42 242.69-4.86L242.69-4.86L241.02 0L232.06 0L252.22-42.24L265.98-42.24L268.67-11.14L268.67-11.14Q269.31-4.42 271.87-2.43L271.87-2.43L271.87-2.43Q270.02 1.28 264.83 1.28ZM250.37-23.17L246.85-15.04L255.68-15.04L254.91-31.49L254.91-33.22L250.37-23.17ZM305.41-4.38L305.41-4.38L305.41-4.38Q302.72-1.66 299.04-0.19L299.04-0.19L299.04-0.19Q295.36 1.28 291.71 1.28L291.71 1.28L291.71 1.28Q288.06 1.28 286.78 0.64L286.78 0.64L284.80 11.52L271.81 12.80L280.64-32.64L291.07-33.73L290.24-29.31L290.24-29.31Q292.93-33.86 298.50-33.86L298.50-33.86L298.50-33.86Q304.77-33.86 308.10-29.82L308.10-29.82L308.10-29.82Q311.04-26.18 311.04-20.61L311.04-20.61L311.04-20.61Q311.04-15.04 309.57-11.07L309.57-11.07L309.57-11.07Q308.10-7.10 305.41-4.38ZM290.94-22.34L287.55-3.58L287.55-3.58Q288.90-2.43 290.56-2.43L290.56-2.43L290.56-2.43Q292.22-2.43 293.18-3.07L293.18-3.07L293.18-3.07Q294.14-3.71 294.85-4.99L294.85-4.99L294.85-4.99Q296.77-8.45 298.30-18.94L298.30-18.94L298.30-18.94Q298.75-22.02 298.75-25.02L298.75-25.02L298.75-25.02Q298.75-28.03 298.08-28.99L298.08-28.99L298.08-28.99Q297.41-29.95 296.13-29.95L296.13-29.95L296.13-29.95Q292.22-29.95 290.94-22.34L290.94-22.34ZM344.70-4.38L344.70-4.38L344.70-4.38Q342.02-1.66 338.34-0.19L338.34-0.19L338.34-0.19Q334.66 1.28 331.01 1.28L331.01 1.28L331.01 1.28Q327.36 1.28 326.08 0.64L326.08 0.64L324.10 11.52L311.10 12.80L319.94-32.64L330.37-33.73L329.54-29.31L329.54-29.31Q332.22-33.86 337.79-33.86L337.79-33.86L337.79-33.86Q344.06-33.86 347.39-29.82L347.39-29.82L347.39-29.82Q350.34-26.18 350.34-20.61L350.34-20.61L350.34-20.61Q350.34-15.04 348.86-11.07L348.86-11.07L348.86-11.07Q347.39-7.10 344.70-4.38ZM330.24-22.34L326.85-3.58L326.85-3.58Q328.19-2.43 329.86-2.43L329.86-2.43L329.86-2.43Q331.52-2.43 332.48-3.07L332.48-3.07L332.48-3.07Q333.44-3.71 334.14-4.99L334.14-4.99L334.14-4.99Q336.06-8.45 337.60-18.94L337.60-18.94L337.60-18.94Q338.05-22.02 338.05-25.02L338.05-25.02L338.05-25.02Q338.05-28.03 337.38-28.99L337.38-28.99L337.38-28.99Q336.70-29.95 335.42-29.95L335.42-29.95L335.42-29.95Q331.52-29.95 330.24-22.34L330.24-22.34Z" fill="#5c61f2"></path></g></g><style>text {
  font-size: 64px;
  font-family: Arial Black;
  dominant-baseline: central;
  text-anchor: middle;
}</style></svg>