<svg width="441" height="100" viewBox="0 0 441 100" fill="none" xmlns="http://www.w3.org/2000/svg">
<path d="M9 81.078C11.5868 80.7639 13.6911 78.8587 15.3128 75.3624C16.9819 71.8248 18.576 65.9812 20.0948 57.8315L27.4637 17.7609H43.9338L36.5768 57.8315C34.702 68.1963 32.218 75.4162 29.1249 79.491C27.5111 81.6069 25.6758 83.0906 23.6191 83.9419C21.5702 84.785 19.4343 85.2065 17.2114 85.2065C14.9805 85.2065 13.1452 84.785 11.7055 83.9419C10.2578 83.0906 9.35598 82.1359 9 81.078ZM62.1602 71.7174C51.0219 71.7174 45.4527 66.2416 45.4527 55.2899C45.4527 47.5122 47.5055 41.1106 51.6112 36.0853C55.9621 30.7458 61.911 28.0761 69.4579 28.0761C74.9242 28.0761 79.0496 29.3986 81.8342 32.0435C84.6188 34.6884 86.0111 38.788 86.0111 44.3424C86.0111 52.8062 83.8356 59.497 79.4847 64.4149C75.2287 69.2832 69.4539 71.7174 62.1602 71.7174ZM64.1418 37.2011C63.5327 38.631 62.9869 40.4163 62.5043 42.5571C62.0218 44.6978 61.4799 47.4626 60.8787 50.8514C60.2695 54.2319 59.965 58.0134 59.965 62.1957C59.965 63.5677 60.1785 64.7042 60.6057 65.6051C61.0408 66.5061 61.8398 66.9565 63.0027 66.9565C64.1656 66.9565 65.1149 66.6672 65.8506 66.0887C66.5863 65.5018 67.231 64.5224 67.7847 63.1503C68.7973 60.712 69.707 57.2323 70.5139 52.7111C71.3287 48.1899 71.7717 44.9499 71.8429 42.991C71.922 41.0321 71.9616 39.3253 71.9616 37.8706C71.9616 36.4159 71.7599 35.2133 71.3564 34.2627C70.953 33.3122 70.1817 32.837 69.0425 32.837C67.9034 32.837 66.9541 33.2089 66.1947 33.9528C65.4352 34.6884 64.751 35.7712 64.1418 37.2011ZM114.869 66.7953C112.441 70.0767 108.213 71.7174 102.185 71.7174C99.044 71.7174 96.3346 70.7255 94.0563 68.7419C91.778 66.7582 90.6389 64.3364 90.6389 61.4766C90.6389 59.8896 90.718 58.6994 90.8762 57.9059L95.9549 29.663L111.381 28.0761L105.827 58.6994C105.63 59.8648 105.531 60.7905 105.531 61.4766C105.531 64.5513 106.417 66.0887 108.189 66.0887C110.159 66.0887 111.855 64.6835 113.279 61.8733C113.73 60.9806 114.059 59.9516 114.264 58.7862L119.652 29.663L134.615 28.0761L128.99 59.0217C128.84 59.8152 128.765 60.6335 128.765 61.4766C128.765 62.3279 128.994 63.2164 129.453 64.1422C129.904 65.0679 130.865 65.6341 132.336 65.8407C132.036 67.1136 131.352 68.1715 130.284 69.0146C128.061 70.8165 125.747 71.7174 123.342 71.7174C120.937 71.7174 119.023 71.2669 117.599 70.366C116.183 69.4651 115.273 68.2749 114.869 66.7953ZM162.488 47.8387C164.308 44.4498 165.217 41.0362 165.217 37.5978C165.217 35.3248 164.434 34.1884 162.868 34.1884C161.65 34.1884 160.408 35.2711 159.142 37.4367C157.829 39.6105 156.97 42.0983 156.567 44.9003L152.616 70.1304L136.893 71.7174L144.642 29.663L157.172 28.0761L155.808 36.0853C158.284 30.7458 162.306 28.0761 167.875 28.0761C170.81 28.0761 173.077 28.8696 174.675 30.4565C176.273 32.0435 177.072 34.4652 177.072 37.7218C177.072 40.9701 176.043 43.6274 173.986 45.6938C171.938 47.7519 169.169 48.7809 165.68 48.7809C164.161 48.7809 163.097 48.4668 162.488 47.8387ZM210.404 71.7174C204.281 71.7174 201.219 69.2295 201.219 64.2537C201.267 62.8817 201.492 61.0302 201.896 58.6994L203.272 51.4093C204.633 44.5325 205.313 40.3254 205.313 38.788C205.313 35.7216 204.455 34.1884 202.738 34.1884C199.851 34.1884 197.647 38.1268 196.129 46.0037L191.643 70.1304L176.383 71.7174L184.286 29.5887L196.734 28.0761L195.523 35.8497C197.905 30.6673 202.738 28.0761 210.024 28.0761C213.568 28.0761 216.087 28.8572 217.583 30.4193C219.078 31.9815 219.825 34.5066 219.825 37.9946C219.825 41.2759 219.014 46.7518 217.393 54.422C216.633 57.8605 216.254 60.2285 216.254 61.5262C216.254 62.8156 216.594 63.8322 217.274 64.5761C217.962 65.32 218.813 65.7415 219.825 65.8407C219.319 67.6426 218.192 69.0725 216.443 70.1304C214.695 71.1884 212.682 71.7174 210.404 71.7174ZM229.199 67.75C228.013 66.3779 227.155 64.605 226.625 62.4312C226.087 60.2657 225.818 57.41 225.818 53.8641C225.818 50.3183 226.403 46.9336 227.574 43.7101C228.737 40.4783 230.382 37.7011 232.51 35.3786C236.861 30.5102 242.632 28.0761 249.823 28.0761C252.402 28.0761 254.629 28.5266 256.503 29.4275L269.485 28.0761L263.872 59.0217C263.722 59.6582 263.647 60.5591 263.647 61.7245C263.647 62.8817 263.987 63.8322 264.667 64.5761C265.348 65.32 266.194 65.7415 267.207 65.8407C266.7 67.6426 265.526 69.0725 263.682 70.1304C261.831 71.1884 259.869 71.7174 257.797 71.7174C255.716 71.7174 253.98 71.3083 252.588 70.49C251.195 69.6717 250.297 68.5724 249.894 67.1921C249.087 68.5146 247.821 69.6014 246.097 70.4528C244.38 71.2959 242.367 71.7174 240.057 71.7174C237.755 71.7174 235.667 71.3992 233.792 70.7627C231.925 70.1263 230.394 69.1221 229.199 67.75ZM245.231 35.5397C244.645 36.4903 244.099 37.7714 243.593 39.3832C243.087 40.9949 242.414 43.9581 241.576 48.2726C240.745 52.5789 240.33 56.2694 240.33 59.3441C240.33 62.4106 240.555 64.3942 241.006 65.2952C241.465 66.1878 242.098 66.6342 242.905 66.6342C244.527 66.6342 245.935 65.8283 247.129 64.2165C248.316 62.6048 249.139 60.369 249.597 57.5092L253.62 34.2627C252.552 33.3122 251.401 32.837 250.167 32.837C248.925 32.837 247.936 33.0477 247.2 33.4693C246.465 33.8908 245.808 34.581 245.231 35.5397ZM291.746 65.7663C290.172 69.7337 286.881 71.7174 281.873 71.7174C279.342 71.7174 277.265 70.7917 275.643 68.9402C274.322 67.4029 273.662 65.7622 273.662 64.0182C273.662 60.0508 274.548 53.7319 276.32 45.0615L281.873 14.587L297.287 13L289.918 53.145C289.056 57.0628 288.625 59.7078 288.625 61.0798C288.625 64.0967 289.665 65.6589 291.746 65.7663ZM331.533 71.7174C325.054 71.7174 321.51 66.9028 320.901 57.2736H307.836C306.824 59.7119 305.965 61.989 305.261 64.105L303.28 70.1304H292.648L316.57 17.7609H332.897L336.089 56.319C336.596 61.8733 337.861 65.4729 339.887 67.1177C338.423 70.1842 335.639 71.7174 331.533 71.7174ZM314.374 41.404L310.198 51.4837H320.675L319.762 31.0888V28.944L314.374 41.404ZM379.686 64.7001C377.558 66.9483 375.038 68.6799 372.127 69.8949C369.216 71.1099 366.316 71.7174 363.429 71.7174C360.542 71.7174 358.592 71.4529 357.579 70.9239L355.229 84.413L339.815 86L350.293 29.663L362.67 28.3117L361.685 33.7916C363.813 30.0309 367.08 28.1505 371.486 28.1505C376.446 28.1505 380.243 29.8201 382.878 33.1593C385.203 36.1679 386.366 39.9741 386.366 44.578C386.366 49.1818 385.785 53.1244 384.622 56.4057C383.459 59.6871 381.814 62.4519 379.686 64.7001ZM362.515 42.4331L358.493 65.6919C359.561 66.6424 360.751 67.1177 362.064 67.1177C363.378 67.1177 364.414 66.8532 365.173 66.3242C365.933 65.7952 366.593 65.0018 367.155 63.9438C368.674 61.084 370.038 55.3188 371.249 46.6484C371.605 44.1027 371.783 41.59 371.783 39.1104C371.783 36.6225 371.518 34.9818 370.988 34.1884C370.458 33.3949 369.686 32.9981 368.674 32.9981C365.581 32.9981 363.528 36.1431 362.515 42.4331ZM426.308 64.7001C424.187 66.9483 421.672 68.6799 418.761 69.8949C415.85 71.1099 412.95 71.7174 410.063 71.7174C407.175 71.7174 405.225 71.4529 404.213 70.9239L401.863 84.413L386.437 86L396.927 29.663L409.303 28.3117L408.318 33.7916C410.439 30.0309 413.702 28.1505 418.108 28.1505C423.068 28.1505 426.865 29.8201 429.5 33.1593C431.833 36.1679 433 39.9741 433 44.578C433 49.1818 432.415 53.1244 431.244 56.4057C430.081 59.6871 428.436 62.4519 426.308 64.7001ZM409.149 42.4331L405.127 65.6919C406.187 66.6424 407.377 67.1177 408.698 67.1177C410.011 67.1177 411.048 66.8532 411.807 66.3242C412.567 65.7952 413.223 65.0018 413.777 63.9438C415.296 61.084 416.664 55.3188 417.883 46.6484C418.239 44.1027 418.417 41.59 418.417 39.1104C418.417 36.6225 418.152 34.9818 417.622 34.1884C417.084 33.3949 416.308 32.9981 415.296 32.9981C412.211 32.9981 410.162 36.1431 409.149 42.4331Z" fill="#F4F4F4"/>
</svg>
